<svg xmlns="http://www.w3.org/2000/svg" width="1200" height="930" viewBox="0 0 1200 930"><rect width="100%" height="100%" fill="#17181b"/><text x="30" y="48" fill="#f2f2f2" font-size="30" font-family="Arial, sans-serif" text-anchor="start" font-weight="700" style="">DadRock AI — Isolated Professional Technique Preview</text><text x="30" y="78" fill="#f2f2f2" font-size="16" font-family="Arial, sans-serif" text-anchor="start" font-weight="400" style="">BENCHMARK ONLY · PRODUCTION RENDERER NOT CALLED</text><text x="30" y="103" fill="#f2f2f2" font-size="16" font-family="Arial, sans-serif" text-anchor="start" font-weight="400" style="">Professional PDF remains scoring authority</text><rect x="30" y="135" width="360" height="230" rx="18" fill="#222429" stroke="#555a64" stroke-width="2"/><text x="48" y="165" fill="#f2f2f2" font-size="20" font-family="Arial, sans-serif" text-anchor="start" font-weight="700" style="">1. full-bend-release</text><text x="48" y="189" fill="#f2f2f2" font-size="13" font-family="Arial, sans-serif" text-anchor="start" font-weight="400" style="">Professional source: page 1, measure 1</text><line x1="60" y1="225" x2="350" y2="225" stroke="#e8e8e8" stroke-width="1"/><line x1="60" y1="241" x2="350" y2="241" stroke="#e8e8e8" stroke-width="1"/><line x1="60" y1="257" x2="350" y2="257" stroke="#e8e8e8" stroke-width="1"/><line x1="60" y1="273" x2="350" y2="273" stroke="#e8e8e8" stroke-width="1"/><line x1="60" y1="289" x2="350" y2="289" stroke="#e8e8e8" stroke-width="1"/><line x1="60" y1="305" x2="350" y2="305" stroke="#e8e8e8" stroke-width="1"/><text x="75" y="200" fill="#f2f2f2" font-size="18" font-family="Arial, sans-serif" text-anchor="start" font-weight="400" style="">full</text><text x="120" y="269" fill="#f2f2f2" font-size="22" font-family="Arial, sans-serif" text-anchor="start" font-weight="700" style="">7</text><path d="M 135 265 C 175 210, 215 210, 245 255" fill="none" stroke="#f2f2f2" stroke-width="3"/><path d="M 238 247 L 250 257 L 236 260" fill="none" stroke="#f2f2f2" stroke-width="3"/><rect x="420" y="135" width="360" height="230" rx="18" fill="#222429" stroke="#555a64" stroke-width="2"/><text x="438" y="165" fill="#f2f2f2" font-size="20" font-family="Arial, sans-serif" text-anchor="start" font-weight="700" style="">2. vibrato</text><text x="438" y="189" fill="#f2f2f2" font-size="13" font-family="Arial, sans-serif" text-anchor="start" font-weight="400" style="">Professional source: page 2, measure 25</text><line x1="450" y1="225" x2="740" y2="225" stroke="#e8e8e8" stroke-width="1"/><line x1="450" y1="241" x2="740" y2="241" stroke="#e8e8e8" stroke-width="1"/><line x1="450" y1="257" x2="740" y2="257" stroke="#e8e8e8" stroke-width="1"/><line x1="450" y1="273" x2="740" y2="273" stroke="#e8e8e8" stroke-width="1"/><line x1="450" y1="289" x2="740" y2="289" stroke="#e8e8e8" stroke-width="1"/><line x1="450" y1="305" x2="740" y2="305" stroke="#e8e8e8" stroke-width="1"/><text x="490" y="269" fill="#f2f2f2" font-size="22" font-family="Arial, sans-serif" text-anchor="start" font-weight="700" style="">7</text><polyline points="535,225 547,235 559,225 571,235 583,225 595,235 607,225 619,235 631,225 643,235 655,225 667,235" fill="none" stroke="#f2f2f2" stroke-width="3"/><rect x="810" y="135" width="360" height="230" rx="18" fill="#222429" stroke="#555a64" stroke-width="2"/><text x="828" y="165" fill="#f2f2f2" font-size="20" font-family="Arial, sans-serif" text-anchor="start" font-weight="700" style="">3. muted-note</text><text x="828" y="189" fill="#f2f2f2" font-size="13" font-family="Arial, sans-serif" text-anchor="start" font-weight="400" style="">Professional source: page 3, measure 28</text><line x1="840" y1="225" x2="1130" y2="225" stroke="#e8e8e8" stroke-width="1"/><line x1="840" y1="241" x2="1130" y2="241" stroke="#e8e8e8" stroke-width="1"/><line x1="840" y1="257" x2="1130" y2="257" stroke="#e8e8e8" stroke-width="1"/><line x1="840" y1="273" x2="1130" y2="273" stroke="#e8e8e8" stroke-width="1"/><line x1="840" y1="289" x2="1130" y2="289" stroke="#e8e8e8" stroke-width="1"/><line x1="840" y1="305" x2="1130" y2="305" stroke="#e8e8e8" stroke-width="1"/><text x="985" y="270" fill="#f2f2f2" font-size="30" font-family="Arial, sans-serif" text-anchor="middle" font-weight="700" style="">X</text><rect x="30" y="395" width="360" height="230" rx="18" fill="#222429" stroke="#555a64" stroke-width="2"/><text x="48" y="425" fill="#f2f2f2" font-size="20" font-family="Arial, sans-serif" text-anchor="start" font-weight="700" style="">4. pick-direction</text><text x="48" y="449" fill="#f2f2f2" font-size="13" font-family="Arial, sans-serif" text-anchor="start" font-weight="400" style="">Professional source: page 3, measure 28</text><line x1="60" y1="485" x2="350" y2="485" stroke="#e8e8e8" stroke-width="1"/><line x1="60" y1="501" x2="350" y2="501" stroke="#e8e8e8" stroke-width="1"/><line x1="60" y1="517" x2="350" y2="517" stroke="#e8e8e8" stroke-width="1"/><line x1="60" y1="533" x2="350" y2="533" stroke="#e8e8e8" stroke-width="1"/><line x1="60" y1="549" x2="350" y2="549" stroke="#e8e8e8" stroke-width="1"/><line x1="60" y1="565" x2="350" y2="565" stroke="#e8e8e8" stroke-width="1"/><text x="170" y="457" fill="#f2f2f2" font-size="30" font-family="Arial, sans-serif" text-anchor="middle" font-weight="700" style="">∧</text><text x="240" y="457" fill="#f2f2f2" font-size="30" font-family="Arial, sans-serif" text-anchor="middle" font-weight="700" style="">∨</text><text x="170" y="530" fill="#f2f2f2" font-size="22" font-family="Arial, sans-serif" text-anchor="middle" font-weight="700" style="">5</text><text x="240" y="530" fill="#f2f2f2" font-size="22" font-family="Arial, sans-serif" text-anchor="middle" font-weight="700" style="">4</text><rect x="420" y="395" width="360" height="230" rx="18" fill="#222429" stroke="#555a64" stroke-width="2"/><text x="438" y="425" fill="#f2f2f2" font-size="20" font-family="Arial, sans-serif" text-anchor="start" font-weight="700" style="">5. chord-sustain-tie</text><text x="438" y="449" fill="#f2f2f2" font-size="13" font-family="Arial, sans-serif" text-anchor="start" font-weight="400" style="">Professional source: page 3, measure 33</text><line x1="450" y1="485" x2="740" y2="485" stroke="#e8e8e8" stroke-width="1"/><line x1="450" y1="501" x2="740" y2="501" stroke="#e8e8e8" stroke-width="1"/><line x1="450" y1="517" x2="740" y2="517" stroke="#e8e8e8" stroke-width="1"/><line x1="450" y1="533" x2="740" y2="533" stroke="#e8e8e8" stroke-width="1"/><line x1="450" y1="549" x2="740" y2="549" stroke="#e8e8e8" stroke-width="1"/><line x1="450" y1="565" x2="740" y2="565" stroke="#e8e8e8" stroke-width="1"/><text x="520" y="491" fill="#f2f2f2" font-size="18" font-family="Arial, sans-serif" text-anchor="middle" font-weight="400" style="">0</text><text x="670" y="491" fill="#f2f2f2" font-size="18" font-family="Arial, sans-serif" text-anchor="middle" font-weight="400" style="">(0)</text><path d="M 535 485 C 580 461, 625 461, 655 485" fill="none" stroke="#f2f2f2" stroke-width="2"/><text x="520" y="507" fill="#f2f2f2" font-size="18" font-family="Arial, sans-serif" text-anchor="middle" font-weight="400" style="">2</text><text x="670" y="507" fill="#f2f2f2" font-size="18" font-family="Arial, sans-serif" text-anchor="middle" font-weight="400" style="">(2)</text><path d="M 535 501 C 580 477, 625 477, 655 501" fill="none" stroke="#f2f2f2" stroke-width="2"/><text x="520" y="523" fill="#f2f2f2" font-size="18" font-family="Arial, sans-serif" text-anchor="middle" font-weight="400" style="">2</text><text x="670" y="523" fill="#f2f2f2" font-size="18" font-family="Arial, sans-serif" text-anchor="middle" font-weight="400" style="">(2)</text><path d="M 535 517 C 580 493, 625 493, 655 517" fill="none" stroke="#f2f2f2" stroke-width="2"/><text x="520" y="539" fill="#f2f2f2" font-size="18" font-family="Arial, sans-serif" text-anchor="middle" font-weight="400" style="">2</text><text x="670" y="539" fill="#f2f2f2" font-size="18" font-family="Arial, sans-serif" text-anchor="middle" font-weight="400" style="">(2)</text><path d="M 535 533 C 580 509, 625 509, 655 533" fill="none" stroke="#f2f2f2" stroke-width="2"/><rect x="810" y="395" width="360" height="230" rx="18" fill="#222429" stroke="#555a64" stroke-width="2"/><text x="828" y="425" fill="#f2f2f2" font-size="20" font-family="Arial, sans-serif" text-anchor="start" font-weight="700" style="">6. chord-slide</text><text x="828" y="449" fill="#f2f2f2" font-size="13" font-family="Arial, sans-serif" text-anchor="start" font-weight="400" style="">Professional source: page 6, measure 79</text><line x1="840" y1="485" x2="1130" y2="485" stroke="#e8e8e8" stroke-width="1"/><line x1="840" y1="501" x2="1130" y2="501" stroke="#e8e8e8" stroke-width="1"/><line x1="840" y1="517" x2="1130" y2="517" stroke="#e8e8e8" stroke-width="1"/><line x1="840" y1="533" x2="1130" y2="533" stroke="#e8e8e8" stroke-width="1"/><line x1="840" y1="549" x2="1130" y2="549" stroke="#e8e8e8" stroke-width="1"/><line x1="840" y1="565" x2="1130" y2="565" stroke="#e8e8e8" stroke-width="1"/><text x="920" y="506" fill="#f2f2f2" font-size="18" font-family="Arial, sans-serif" text-anchor="middle" font-weight="400" style="">5</text><text x="1055" y="506" fill="#f2f2f2" font-size="18" font-family="Arial, sans-serif" text-anchor="middle" font-weight="400" style="">7</text><line x1="935" y1="498" x2="1038" y2="483" stroke="#e8e8e8" stroke-width="2"/><text x="920" y="522" fill="#f2f2f2" font-size="18" font-family="Arial, sans-serif" text-anchor="middle" font-weight="400" style="">6</text><text x="1055" y="522" fill="#f2f2f2" font-size="18" font-family="Arial, sans-serif" text-anchor="middle" font-weight="400" style="">8</text><line x1="935" y1="514" x2="1038" y2="499" stroke="#e8e8e8" stroke-width="2"/><text x="920" y="538" fill="#f2f2f2" font-size="18" font-family="Arial, sans-serif" text-anchor="middle" font-weight="400" style="">7</text><text x="1055" y="538" fill="#f2f2f2" font-size="18" font-family="Arial, sans-serif" text-anchor="middle" font-weight="400" style="">9</text><line x1="935" y1="530" x2="1038" y2="515" stroke="#e8e8e8" stroke-width="2"/><rect x="30" y="655" width="360" height="230" rx="18" fill="#222429" stroke="#555a64" stroke-width="2"/><text x="48" y="685" fill="#f2f2f2" font-size="20" font-family="Arial, sans-serif" text-anchor="start" font-weight="700" style="">7. time-signature-change</text><text x="48" y="709" fill="#f2f2f2" font-size="13" font-family="Arial, sans-serif" text-anchor="start" font-weight="400" style="">Professional source: page 8, measure 104</text><line x1="60" y1="745" x2="350" y2="745" stroke="#e8e8e8" stroke-width="1"/><line x1="60" y1="761" x2="350" y2="761" stroke="#e8e8e8" stroke-width="1"/><line x1="60" y1="777" x2="350" y2="777" stroke="#e8e8e8" stroke-width="1"/><line x1="60" y1="793" x2="350" y2="793" stroke="#e8e8e8" stroke-width="1"/><line x1="60" y1="809" x2="350" y2="809" stroke="#e8e8e8" stroke-width="1"/><line x1="60" y1="825" x2="350" y2="825" stroke="#e8e8e8" stroke-width="1"/><text x="155" y="780" fill="#f2f2f2" font-size="54" font-family="Arial, sans-serif" text-anchor="middle" font-weight="700" style="">2</text><text x="155" y="830" fill="#f2f2f2" font-size="54" font-family="Arial, sans-serif" text-anchor="middle" font-weight="700" style="">4</text><text x="275" y="780" fill="#f2f2f2" font-size="54" font-family="Arial, sans-serif" text-anchor="middle" font-weight="700" style="">4</text><text x="275" y="830" fill="#f2f2f2" font-size="54" font-family="Arial, sans-serif" text-anchor="middle" font-weight="700" style="">4</text><rect x="420" y="655" width="360" height="230" rx="18" fill="#222429" stroke="#555a64" stroke-width="2"/><text x="438" y="685" fill="#f2f2f2" font-size="20" font-family="Arial, sans-serif" text-anchor="start" font-weight="700" style="">8. section-label</text><text x="438" y="709" fill="#f2f2f2" font-size="13" font-family="Arial, sans-serif" text-anchor="start" font-weight="400" style="">Professional source: page 2, measure 17</text><line x1="450" y1="745" x2="740" y2="745" stroke="#e8e8e8" stroke-width="1"/><line x1="450" y1="761" x2="740" y2="761" stroke="#e8e8e8" stroke-width="1"/><line x1="450" y1="777" x2="740" y2="777" stroke="#e8e8e8" stroke-width="1"/><line x1="450" y1="793" x2="740" y2="793" stroke="#e8e8e8" stroke-width="1"/><line x1="450" y1="809" x2="740" y2="809" stroke="#e8e8e8" stroke-width="1"/><line x1="450" y1="825" x2="740" y2="825" stroke="#e8e8e8" stroke-width="1"/><text x="470" y="723" fill="#f2f2f2" font-size="26" font-family="Arial, sans-serif" text-anchor="start" font-weight="700" style="font-style:italic;">Verse 1</text><rect x="810" y="655" width="360" height="230" rx="18" fill="#222429" stroke="#555a64" stroke-width="2"/><text x="828" y="685" fill="#f2f2f2" font-size="20" font-family="Arial, sans-serif" text-anchor="start" font-weight="700" style="">9. final-barline</text><text x="828" y="709" fill="#f2f2f2" font-size="13" font-family="Arial, sans-serif" text-anchor="start" font-weight="400" style="">Professional source: page 8, measure 113</text><line x1="840" y1="745" x2="1130" y2="745" stroke="#e8e8e8" stroke-width="1"/><line x1="840" y1="761" x2="1130" y2="761" stroke="#e8e8e8" stroke-width="1"/><line x1="840" y1="777" x2="1130" y2="777" stroke="#e8e8e8" stroke-width="1"/><line x1="840" y1="793" x2="1130" y2="793" stroke="#e8e8e8" stroke-width="1"/><line x1="840" y1="809" x2="1130" y2="809" stroke="#e8e8e8" stroke-width="1"/><line x1="840" y1="825" x2="1130" y2="825" stroke="#e8e8e8" stroke-width="1"/><line x1="1075" y1="740" x2="1075" y2="835" stroke="#e8e8e8" stroke-width="3"/><line x1="1087" y1="740" x2="1087" y2="835" stroke="#e8e8e8" stroke-width="7"/><text x="960" y="790" fill="#f2f2f2" font-size="22" font-family="Arial, sans-serif" text-anchor="middle" font-weight="400" style="">(0)</text><text x="30" y="892" fill="#f2f2f2" font-size="15" font-family="Arial, sans-serif" text-anchor="start" font-weight="400" style="">Isolated preview only · Source events untouched · Renderer unchanged · Production disabled</text></svg>